<?xml version="1.0" encoding="UTF-8" standalone="no"?>
<svg
   width="699.98999pt"
   height="398.43652pt"
   version="1.1"
   viewBox="0 0 699.98999 398.43652"
   id="svg147"
   sodipodi:docname="noun-cloud-2891540.svg"
   inkscape:version="1.1.2 (0a00cf5339, 2022-02-04)"
   xmlns:inkscape="http://www.inkscape.org/namespaces/inkscape"
   xmlns:sodipodi="http://sodipodi.sourceforge.net/DTD/sodipodi-0.dtd"
   xmlns="http://www.w3.org/2000/svg"
   xmlns:svg="http://www.w3.org/2000/svg">
  <sodipodi:namedview
     id="namedview149"
     pagecolor="#ffffff"
     bordercolor="#666666"
     borderopacity="1.0"
     inkscape:pageshadow="2"
     inkscape:pageopacity="0.0"
     inkscape:pagecheckerboard="0"
     inkscape:document-units="pt"
     showgrid="false"
     fit-margin-top="0"
     fit-margin-left="0"
     fit-margin-right="0"
     fit-margin-bottom="0"
     inkscape:zoom="0.83142857"
     inkscape:cx="466.06529"
     inkscape:cy="331.95876"
     inkscape:window-width="1920"
     inkscape:window-height="1011"
     inkscape:window-x="0"
     inkscape:window-y="0"
     inkscape:window-maximized="1"
     inkscape:current-layer="svg147" />
  <defs
     id="defs65">
    <symbol
       id="u"
       overflow="visible">
      <path
         d="M 6.9219,-0.40625 C 6.56643,-0.22656 6.19143,-0.09375 5.7969,0 5.41018,0.09375 5.00784,0.14062 4.5938,0.14062 c -1.25,0 -2.2461,-0.34766 -2.9844,-1.0469 -0.73047,-0.69531 -1.0938,-1.6445 -1.0938,-2.8438 0,-1.207 0.36328,-2.1602 1.0938,-2.8594 0.73828,-0.70703 1.7344,-1.0625 2.9844,-1.0625 0.41406,0 0.81641,0.046875 1.2031,0.14062 0.39453,0.09375 0.76953,0.23438 1.125,0.42188 v 1.5625 C 6.55471,-5.79698 6.19534,-5.97667 5.8438,-6.09386 5.50005,-6.20714 5.13286,-6.26574 4.75,-6.26574 c -0.6875,0 -1.2344,0.22656 -1.6406,0.67188 -0.39844,0.44922 -0.59375,1.0625 -0.59375,1.8438 0,0.77344 0.19531,1.3828 0.59375,1.8281 0.40625,0.4375 0.95312,0.65625 1.6406,0.65625 0.38281,0 0.75,-0.054687 1.0938,-0.17188 0.35156,-0.11328 0.71094,-0.28906 1.0781,-0.53125 z"
         id="path2" />
    </symbol>
    <symbol
       id="a"
       overflow="visible">
      <path
         d="M 5.0625,-4.1094 C 4.90625,-4.179713 4.75,-4.2344 4.59375,-4.26565 4.4375,-4.304713 4.28125,-4.32815 4.125,-4.32815 c -0.46875,0 -0.82812,0.15234 -1.0781,0.45312 -0.25,0.29297 -0.375,0.71484 -0.375,1.2656 V -3e-5 H 0.875 v -5.6406 h 1.7969 v 0.92188 c 0.22656,-0.375 0.49219,-0.64453 0.79688,-0.8125 0.30078,-0.16406 0.66016,-0.25 1.0781,-0.25 0.0625,0 0.12891,0.00781 0.20312,0.015625 0.070312,0 0.17578,0.00781 0.3125,0.015625 z"
         id="path5" />
    </symbol>
    <symbol
       id="b"
       overflow="visible">
      <path
         d="m 6.5,-2.8438 v 0.51562 H 2.2812 c 0.039062,0.42969 0.19141,0.75 0.45312,0.96875 0.26953,0.21094 0.64062,0.3125 1.1094,0.3125 0.375,0 0.75781,-0.054687 1.1562,-0.17188 0.40625,-0.11328 0.81641,-0.28516 1.2344,-0.51562 v 1.3906 c -0.42969,0.16797 -0.85547,0.28906 -1.2812,0.35938 -0.42969,0.082031 -0.85547,0.125 -1.2812,0.125 -1.0234,0 -1.8203,-0.25391 -2.3906,-0.76562 -0.5625,-0.51953 -0.84375,-1.25 -0.84375,-2.1875 0,-0.92578 0.27344,-1.6484 0.82812,-2.1719 0.5625,-0.53125 1.332,-0.79688 2.3125,-0.79688 0.88281,0 1.5938,0.26562 2.125,0.79688 0.5312,0.53126 0.79688,1.2461 0.79688,2.1406 z M 4.6562,-3.43755 c 0,-0.34375 -0.10547,-0.61719 -0.3125,-0.82812 -0.19922,-0.20703 -0.46094,-0.3125 -0.78125,-0.3125 -0.34375,0 -0.625,0.10156 -0.84375,0.29688 -0.21875,0.1875 -0.35938,0.46875 -0.42188,0.84375 z"
         id="path8" />
    </symbol>
    <symbol
       id="d"
       overflow="visible">
      <path
         d="m 3.4062,-2.5469 c -0.38672,0 -0.67188,0.070313 -0.85938,0.20312 -0.1875,0.125 -0.28125,0.3125 -0.28125,0.5625 0,0.23047 0.070313,0.41406 0.21875,0.54688 0.15625,0.125 0.36719,0.1875 0.64062,0.1875 0.34375,0 0.62891,-0.11719 0.85938,-0.35938 0.23828,-0.25 0.35938,-0.55469 0.35938,-0.92188 v -0.21875 z m 2.75,-0.67188 V 2e-5 H 4.3437 v -0.84375 c -0.25,0.34375 -0.52734,0.59375 -0.82812,0.75 -0.30469,0.15625 -0.66797,0.23438 -1.0938,0.23438 -0.59375,0 -1.0742,-0.16406 -1.4375,-0.5 C 0.61709,-0.7031 0.4374,-1.14451 0.4374,-1.68745 c 0,-0.66406 0.22656,-1.1484 0.6875,-1.4531 0.45703,-0.3125 1.1719,-0.46875 2.1406,-0.46875 h 1.0781 v -0.14062 c 0,-0.28906 -0.11719,-0.5 -0.34375,-0.625 -0.23047,-0.13281 -0.58594,-0.20312 -1.0625,-0.20312 -0.38672,0 -0.74609,0.039063 -1.0781,0.10938 -0.33594,0.074219 -0.64062,0.1875 -0.92188,0.34375 v -1.375 c 0.38281,-0.09375 0.76953,-0.16016 1.1562,-0.20312 0.39453,-0.050781 0.78516,-0.078125 1.1719,-0.078125 1.0195,0 1.7539,0.20312 2.2031,0.60938 0.45703,0.39844 0.6875,1.0469 0.6875,1.9531 z"
         id="path11" />
    </symbol>
    <symbol
       id="c"
       overflow="visible">
      <path
         d="m 2.8438,-7.25 v 1.6094 h 1.8594 v 1.2812 H 2.8438 v 2.3906 c 0,0.27344 0.050781,0.45312 0.15625,0.54688 0.10156,0.085937 0.30469,0.125 0.60938,0.125 h 0.9375 V -2e-5 h -1.5469 c -0.71875,0 -1.2305,-0.14453 -1.5312,-0.4375 -0.29297,-0.30078 -0.4375,-0.8125 -0.4375,-1.5312 v -2.3906 H 0.14071 v -1.2812 h 0.89062 v -1.6094 z"
         id="path14" />
    </symbol>
    <symbol
       id="m"
       overflow="visible">
      <path
         d="M 4.7031,-4.8281 V -7.8437 H 6.5312 V 10e-5 H 4.7031 V -0.8124 C 4.46091,-0.47646 4.19138,-0.23428 3.8906,-0.07802 3.58591,0.06651 3.23826,0.14073 2.8437,0.14073 c -0.6875,0 -1.2578,-0.27344 -1.7031,-0.82812 -0.44922,-0.55078 -0.67188,-1.2578 -0.67188,-2.125 0,-0.875 0.22266,-1.5859 0.67188,-2.1406 0.44531,-0.55078 1.0156,-0.82812 1.7031,-0.82812 0.39453,0 0.74219,0.078125 1.0469,0.23438 0.30078,0.15625 0.57031,0.39844 0.8125,0.71875 z m -1.1875,3.6562 c 0.38281,0 0.67578,-0.14062 0.875,-0.42188 0.20703,-0.28125 0.3125,-0.6875 0.3125,-1.2188 0,-0.53906 -0.10547,-0.95312 -0.3125,-1.2344 -0.19922,-0.28125 -0.49219,-0.42188 -0.875,-0.42188 -0.38672,0 -0.68359,0.14062 -0.89062,0.42188 -0.19922,0.28125 -0.29688,0.69531 -0.29688,1.2344 0,0.53125 0.097656,0.9375 0.29688,1.2188 0.20703,0.28125 0.50391,0.42188 0.89062,0.42188 z"
         id="path17" />
    </symbol>
    <symbol
       id="l"
       overflow="visible">
      <path
         d="m 3.875,-1.1719 c 0.38281,0 0.67578,-0.14062 0.875,-0.42188 0.20703,-0.28125 0.3125,-0.6875 0.3125,-1.2188 0,-0.53906 -0.10547,-0.95312 -0.3125,-1.2344 -0.19922,-0.28125 -0.49219,-0.42188 -0.875,-0.42188 -0.38672,0 -0.68359,0.14062 -0.89062,0.42188 -0.21094,0.28125 -0.3125,0.69531 -0.3125,1.2344 0,0.53125 0.10156,0.9375 0.3125,1.2188 0.20703,0.28125 0.50391,0.42188 0.89062,0.42188 z M 2.6719,-4.8281 c 0.25,-0.32031 0.52344,-0.5625 0.82812,-0.71875 0.30078,-0.15625 0.64844,-0.23438 1.0469,-0.23438 0.69531,0 1.2656,0.27734 1.7031,0.82812 0.44531,0.55469 0.67188,1.2656 0.67188,2.1406 0,0.86719 -0.22656,1.5742 -0.67188,2.125 -0.4375,0.55469 -1.0078,0.82812 -1.7031,0.82812 -0.39844,0 -0.74609,-0.078125 -1.0469,-0.23438 C 3.19533,-0.25002 2.9219,-0.4883 2.6719,-0.81252 V -2e-5 H 0.875 v -7.8438 h 1.7969 z"
         id="path20" />
    </symbol>
    <symbol
       id="k"
       overflow="visible">
      <path
         d="m 0.125,-5.6406 h 1.8125 l 1.5156,3.8281 1.2812,-3.8281 H 6.5468 L 4.1718,0.5313 C 3.92961,1.16411 3.64836,1.6094 3.32805,1.8594 c -0.3125,0.25 -0.73047,0.375 -1.25,0.375 H 1.03115 V 1.0469 h 0.5625 c 0.3125,0 0.53516,-0.054687 0.67188,-0.15625 C 2.39834,0.7969 2.50772,0.62503 2.59365,0.37503 L 2.640525,0.21878 Z"
         id="path23" />
    </symbol>
    <symbol
       id="j"
       overflow="visible">
      <path
         d="m 6.1875,-7.2969 v 1.5938 C 5.76953,-5.87888 5.36328,-6.0156 4.9687,-6.10935 4.58198,-6.21091 4.21089,-6.2656 3.8593,-6.2656 c -0.46094,0 -0.80469,0.070313 -1.0312,0.20312 -0.21875,0.125 -0.32812,0.32422 -0.32812,0.59375 0,0.19922 0.070312,0.35547 0.21875,0.46875 0.15625,0.11719 0.42969,0.21484 0.82812,0.29688 l 0.82812,0.15625 c 0.83203,0.16797 1.4258,0.42188 1.7812,0.76562 0.35156,0.34375 0.53125,0.83594 0.53125,1.4688 0,0.83594 -0.25,1.4531 -0.75,1.8594 -0.49219,0.39844 -1.2422,0.59375 -2.25,0.59375 -0.48047,0 -0.96094,-0.046875 -1.4375,-0.14062 -0.48047,-0.082031 -0.96094,-0.21094 -1.4375,-0.39062 v -1.6406 c 0.47656,0.25 0.94141,0.44531 1.3906,0.57812 0.44531,0.125 0.87891,0.1875 1.2969,0.1875 0.42578,0 0.75,-0.066406 0.96875,-0.20312 0.22656,-0.14453 0.34375,-0.34766 0.34375,-0.60938 0,-0.23828 -0.078125,-0.42188 -0.23438,-0.54688 -0.14844,-0.125 -0.44922,-0.23828 -0.90625,-0.34375 l -0.75,-0.15625 C 2.16007,-3.28894 1.60149,-3.55066 1.24989,-3.90613 0.90614,-4.25769 0.73427,-4.73425 0.73427,-5.32803 c 0,-0.75 0.23828,-1.3281 0.71875,-1.7344 0.48828,-0.40625 1.1914,-0.60938 2.1094,-0.60938 0.40625,0 0.82812,0.03125 1.2656,0.09375 0.43748,0.0625 0.89062,0.15625 1.3594,0.28125 z"
         id="path26" />
    </symbol>
    <symbol
       id="i"
       overflow="visible">
      <path
         d="M 0.875,-5.6406 H 2.6719 V 0 H 0.875 Z m 0,-2.2031 h 1.7969 v 1.4688 H 0.875 Z"
         id="path29" />
    </symbol>
    <symbol
       id="h"
       overflow="visible">
      <path
         d="m 4.5781,-7.8438 v 1.1875 h -1 c -0.25,0 -0.42969,0.046875 -0.53125,0.14062 -0.09375,0.085937 -0.14062,0.24219 -0.14062,0.46875 v 0.40625 h 1.5312 v 1.2812 H 2.90623 V -8e-5 h -1.8125 v -4.3594 H 0.20311 v -1.2812 h 0.89062 v -0.40625 c 0,-0.61328 0.17188,-1.0664 0.51562,-1.3594 0.34375,-0.28906 0.875,-0.4375 1.5938,-0.4375 z"
         id="path32" />
    </symbol>
    <symbol
       id="g"
       overflow="visible">
      <path
         d="M 0.8125,-2.2031 V -5.6406 H 2.625 v 0.5625 c 0,0.30469 -0.00781,0.6875 -0.015625,1.1562 v 0.92188 c 0,0.44922 0.00781,0.77734 0.03125,0.98438 0.03125,0.19922 0.070313,0.33984 0.125,0.42188 0.070313,0.125 0.16406,0.21875 0.28125,0.28125 0.125,0.0625 0.26562,0.09375 0.42188,0.09375 0.375,0 0.67188,-0.14453 0.89062,-0.4375 0.21875,-0.28906 0.32812,-0.69141 0.32812,-1.2031 v -2.7812 h 1.7969 V 4e-5 h -1.7969 v -0.8125 c -0.28125,0.32422 -0.57422,0.5625 -0.875,0.71875 -0.30469,0.15625 -0.63672,0.23438 -1,0.23438 -0.65625,0 -1.1562,-0.19531 -1.5,-0.59375 -0.33594,-0.39453 -0.5,-0.97656 -0.5,-1.75 z"
         id="path35" />
    </symbol>
    <symbol
       id="f"
       overflow="visible">
      <path
         d="m 0.875,-5.6406 h 1.7969 v 5.5469 c 0,0.75 -0.18359,1.3203 -0.54688,1.7188 C 1.75783,2.03135 1.2344,2.23448 0.54692,2.23448 H -0.3437 v -1.1875 h 0.3125 c 0.34375,0 0.57812,-0.078125 0.70312,-0.23438 0.13281,-0.15625 0.20312,-0.46094 0.20312,-0.90625 z m 0,-2.2031 h 1.7969 v 1.4688 H 0.875 Z"
         id="path38" />
    </symbol>
    <symbol
       id="t"
       overflow="visible">
      <path
         d="M 0.875,-7.8438 H 2.6719 V 0 H 0.875 Z"
         id="path41" />
    </symbol>
    <symbol
       id="e"
       overflow="visible">
      <path
         d="m 3.5625,-4.5 c -0.40625,0 -0.71484,0.14844 -0.92188,0.4375 -0.21094,0.29297 -0.3125,0.71094 -0.3125,1.25 0,0.54297 0.10156,0.96094 0.3125,1.25 0.20703,0.28125 0.51562,0.42188 0.92188,0.42188 0.38281,0 0.67969,-0.14062 0.89062,-0.42188 0.20703,-0.28906 0.3125,-0.70703 0.3125,-1.25 0,-0.53906 -0.10547,-0.95703 -0.3125,-1.25 C 4.24218,-4.35156 3.94531,-4.5 3.5625,-4.5 Z m 0,-1.2812 c 0.96875,0 1.7227,0.26562 2.2656,0.79688 0.55078,0.52344 0.82812,1.2461 0.82812,2.1719 0,0.92969 -0.27734,1.6523 -0.82812,2.1719 -0.54297,0.52344 -1.2969,0.78125 -2.2656,0.78125 -0.98047,0 -1.7461,-0.25781 -2.2969,-0.78125 -0.55469,-0.51953 -0.82812,-1.2422 -0.82812,-2.1719 0,-0.92578 0.27344,-1.6484 0.82812,-2.1719 C 1.81638,-5.51557 2.582,-5.7812 3.5625,-5.7812 Z"
         id="path44" />
    </symbol>
    <symbol
       id="s"
       overflow="visible">
      <path
         d="m 6.1094,-4.7031 c 0.21875,-0.35156 0.48438,-0.61719 0.79688,-0.79688 0.32031,-0.1875 0.67188,-0.28125 1.0469,-0.28125 0.64453,0 1.1328,0.20312 1.4688,0.60938 0.34375,0.39844 0.51562,0.97656 0.51562,1.7344 V 5e-5 H 8.1251 v -2.9375 c 0.00781,-0.050781 0.015625,-0.097656 0.015625,-0.14062 v -0.20312 c 0,-0.40625 -0.0625,-0.69531 -0.1875,-0.875 -0.11719,-0.17578 -0.30469,-0.26562 -0.5625,-0.26562 -0.34375,0 -0.60938,0.14062 -0.79688,0.42188 -0.1875,0.28126 -0.28125,0.6875 -0.28125,1.2188 V 7e-5 h -1.8125 v -2.9375 c 0,-0.63281 -0.058594,-1.0391 -0.17188,-1.2188 -0.10547,-0.17578 -0.29688,-0.26562 -0.57812,-0.26562 -0.34375,0 -0.60938,0.14062 -0.79688,0.42188 -0.1875,0.28126 -0.28125,0.6875 -0.28125,1.2188 V 3e-5 h -1.8125 v -5.6406 h 1.8125 v 0.8125 c 0.21875,-0.3125 0.47266,-0.54688 0.76562,-0.70312 0.28906,-0.16406 0.60938,-0.25 0.95312,-0.25 0.38281,0 0.72656,0.09375 1.0312,0.28125 0.30078,0.1875 0.53125,0.45312 0.6875,0.79688 z"
         id="path47" />
    </symbol>
    <symbol
       id="r"
       overflow="visible">
      <path
         d="M 6.5469,-3.4375 V 0 H 4.7344 v -2.625 c 0,-0.48828 -0.011719,-0.82812 -0.03125,-1.0156 C 4.679713,-3.8281 4.64065,-3.96091 4.57815,-4.04685 4.51565,-4.16013 4.4219,-4.24997 4.2969,-4.31247 4.1719,-4.382782 4.03518,-4.42185 3.89065,-4.42185 c -0.38672,0 -0.6875,0.14844 -0.90625,0.4375 -0.21094,0.29297 -0.3125,0.69531 -0.3125,1.2031 V -5e-5 H 0.875 v -7.8438 h 1.7969 v 3.0156 c 0.26953,-0.32031 0.55469,-0.5625 0.85938,-0.71875 0.3125,-0.15625 0.64844,-0.23438 1.0156,-0.23438 0.65625,0 1.1484,0.20312 1.4844,0.60938 0.34375,0.39844 0.51562,0.97656 0.51562,1.7344 z"
         id="path50" />
    </symbol>
    <symbol
       id="q"
       overflow="visible">
      <path
         d="m 0.95312,-7.5312 h 2.1562 l 2.75,5.1719 v -5.1719 h 1.8438 V 0 h -2.1719 l -2.75,-5.1719 V 0 h -1.8281 z"
         id="path53" />
    </symbol>
    <symbol
       id="p"
       overflow="visible">
      <path
         d="M 6.5469,-3.4375 V 0 H 4.7344 v -2.625 c 0,-0.48828 -0.011719,-0.82812 -0.03125,-1.0156 C 4.679713,-3.8281 4.64065,-3.96091 4.57815,-4.04685 4.51565,-4.16013 4.4219,-4.24997 4.2969,-4.31247 4.1719,-4.382782 4.03518,-4.42185 3.89065,-4.42185 c -0.38672,0 -0.6875,0.14844 -0.90625,0.4375 -0.21094,0.29297 -0.3125,0.69531 -0.3125,1.2031 V -5e-5 H 0.875 v -5.6406 h 1.7969 v 0.8125 c 0.26953,-0.32031 0.55469,-0.5625 0.85938,-0.71875 0.3125,-0.15625 0.64844,-0.23438 1.0156,-0.23438 0.65625,0 1.1484,0.20312 1.4844,0.60938 0.34375,0.39844 0.51562,0.97656 0.51562,1.7344 z"
         id="path56" />
    </symbol>
    <symbol
       id="o"
       overflow="visible">
      <path
         d="m 0.95312,-7.5312 h 3.2188 c 0.95703,0 1.6914,0.21484 2.2031,0.64062 0.50781,0.42969 0.76562,1.0312 0.76562,1.8125 0,0.79297 -0.25781,1.4023 -0.76562,1.8281 -0.51172,0.42969 -1.2461,0.64062 -2.2031,0.64062 H 2.89072 V 4e-5 h -1.9375 z m 1.9375,1.4062 v 2.1094 h 1.0781 c 0.375,0 0.66016,-0.085937 0.85938,-0.26562 0.20703,-0.1875 0.3125,-0.45312 0.3125,-0.79688 0,-0.33203 -0.10547,-0.58594 -0.3125,-0.76562 -0.19922,-0.1875 -0.48438,-0.28125 -0.85938,-0.28125 z"
         id="path59" />
    </symbol>
    <symbol
       id="n"
       overflow="visible">
      <path
         d="M 5.4375,-5.4688 V -4 c -0.25,-0.16406 -0.5,-0.28906 -0.75,-0.375 C 4.44531,-4.457031 4.19141,-4.5 3.92188,-4.5 c -0.5,0 -0.89062,0.15234 -1.1719,0.45312 -0.28125,0.29297 -0.42188,0.70312 -0.42188,1.2344 0,0.52344 0.14062,0.93359 0.42188,1.2344 0.28125,0.29297 0.67188,0.4375 1.1719,0.4375 0.28125,0 0.54688,-0.039063 0.79688,-0.125 0.25781,-0.082031 0.5,-0.20703 0.71875,-0.375 v 1.4688 C 5.14454,-0.06631 4.85157,0.00791 4.56251,0.0626 4.28126,0.113381 3.9922,0.140725 3.70313,0.140725 c -1.0234,0 -1.8242,-0.25781 -2.4062,-0.78125 -0.57422,-0.51953 -0.85938,-1.2422 -0.85938,-2.1719 0,-0.9375 0.28516,-1.6641 0.85938,-2.1875 0.58203,-0.51953 1.3828,-0.78125 2.4062,-0.78125 0.28906,0 0.57812,0.027344 0.85938,0.078125 0.28906,0.054687 0.58203,0.13281 0.875,0.23438 z"
         id="path62" />
    </symbol>
  </defs>
  <g
     id="g145"
     transform="translate(-0.007,-101.01349)">
    <path
       d="m 613.27,257.86 c 49.559,14.453 86.727,61.945 86.727,117.7 0,68.141 -55.754,123.89 -123.89,123.89 h -452.21 c -68.141,0 -123.89,-55.754 -123.89,-123.89 0,-64.012 49.559,-117.7 111.5,-123.89 22.715,-80.531 115.63,-115.63 183.78,-70.207 88.789,-138.35 303.54,-88.789 317.99,76.402 z M 280.82,210.368 c -49.559,-30.973 -119.77,-6.1953 -136.28,51.621 -4.1289,14.453 -16.52,22.715 -30.973,24.777 -43.363,4.1289 -78.465,43.363 -78.465,88.789 0,49.559 39.234,88.789 88.789,88.789 h 452.21 c 49.559,0 88.789,-39.234 88.789,-88.789 0,-39.234 -24.777,-74.336 -61.945,-84.66 -14.453,-4.1289 -22.715,-16.52 -24.777,-30.973 -12.391,-130.09 -183.78,-169.32 -251.92,-59.883 -10.324,14.453 -30.973,20.648 -45.426,10.324 z"
       fill-rule="evenodd"
       id="path67" />
  </g>
</svg>
